
<svg id="steering" xmlns="http://www.w3.org/2000/svg" version="1.1" xmlns:xlink="http://www.w3.org/1999/xlink" preserveAspectRatio="none" x="0px" y="0px" width="210px" height="210px" viewBox="0 0 210 210">
<defs>
<filter id="Filter_1" x="-20%" y="-20%" width="140%" height="140%" color-interpolation-filters="sRGB">
<feColorMatrix in="SourceGraphic" type="matrix" values="1 0 0 0 0 0 1 0 0 0 0 0 1 0 0 0 0 0 0.28 0" result="result1"/>
</filter>

<g id="steering_0_Layer0_0_MEMBER_0_MEMBER_0_FILL">
<path fill="#000000" stroke="none" d="
M 307.25 97.5
Q 295 68.8 272.8 46.7 250.6 24.55 221.9 12.45 192.15 -0.05 159.65 0 127.2 0.1 97.5 12.75 68.8 25 46.7 47.2 24.55 69.4 12.45 98.1 -0.05 127.85 0 160.35 0.1 192.8 12.7 222.5 24.95 251.2 47.15 273.3 69.35 295.45 98.05 307.55 127.8 320.05 160.3 320 192.8 319.95 222.5 307.25 251.2 295.05 273.3 272.85 295.45 250.65 307.55 221.95 320.1 192.2 320 159.7 319.9 127.2 307.25 97.5
M 247.1 75.85
Q 257.5 70.8 262.5 64.65 280.85 84.3 290.55 109.15 299.95 133.25 300.05 159.2 300.2 185.15 291.05 209.35 281.65 234.3 263.5 254.15 258.55 246.45 247.6 240.35 251.45 252.55 256.3 259.45 257.05 260.35 257.3 260.55 237.55 279.75 212.15 289.9 187.65 299.8 161.05 300 134.5 300.25 109.8 290.75 84.3 281 64.2 262.15 71.5 255 76.9 238.45 62.7 245.3 56.7 254.55 38.55 234.75 29.1 209.8 19.9 185.65 20 159.7 20.05 133.8 29.35 109.7 38.95 84.85 57.2 65.15 63.1 72.25 75.6 77.55 70.75 64.25 64.3 57.95 84.1 39.25 109.35 29.45 133.75 19.95 160.05 19.95 186.35 19.95 210.75 29.45 235.95 39.25 255.8 57.95 250.8 64 247.1 75.85 Z"/>
</g>

<g id="steering_0_Layer0_0_MEMBER_0_MEMBER_1_FILL">
<path fill="#000000" stroke="none" d="
M 168.1 177.5
Q 175.35 174.15 178.1 166.7 180.85 159.25 177.45 152 174.1 144.8 166.6 142.05 159.05 139.3 151.85 142.6 144.6 145.95 141.85 153.4 139.1 160.85 142.5 168.1 145.85 175.35 153.35 178.1 160.85 180.85 168.1 177.5 Z"/>
</g>

<g id="steering_0_Layer0_0_MEMBER_0_MEMBER_2_FILL">
<path fill="#000000" stroke="none" d="
M 209.35 86.9
Q 187.4 90.6 162.15 90.85 137 91.05 114.55 87.75 91 84.25 75.5 77.6 86.45 107.45 86.85 157 87.25 206.35 76.9 238.4 92.55 230.85 116.05 226.85 138.5 223.1 163.45 223.35 188.55 223.6 210.3 227.85 233.2 232.35 247.6 240.4 237.7 208.6 237.55 157.3 237.4 106.2 247 75.95 232.45 83 209.35 86.9
M 214.55 104.2
Q 214.55 105.7 213.5 106.8 212.45 107.85 210.95 107.85
L 210.85 107.85 210.85 107.8
Q 209.35 107.8 208.3 106.7 207.25 105.65 207.3 104.1 207.3 102.6 208.4 101.55 209.45 100.5 211 100.55 212.5 100.55 213.55 101.65 214.6 102.7 214.55 104.2
M 199.25 159.9
Q 199.3 176.15 187.8 187.7 176.35 199.2 160.1 199.2
L 160.05 199.2
Q 143.8 199.25 132.3 187.75 120.8 176.25 120.8 160 120.75 143.75 132.25 132.25 143.75 120.75 160 120.75 176.25 120.7 187.75 132.2 199.25 143.65 199.25 159.9
M 109.1 106.15
L 109.05 106.1
Q 107.55 106.1 106.5 105 105.45 103.95 105.45 102.4 105.5 100.9 106.55 99.85 107.65 98.8 109.15 98.8 110.7 98.85 111.75 99.9 112.8 101 112.8 102.5 112.75 104 111.7 105.1 110.65 106.15 109.15 106.15
L 109.1 106.15
M 107.45 202.1
Q 108.95 202.15 110.05 203.2 111.1 204.25 111.1 205.75
L 111.05 205.8
Q 111 207.3 109.95 208.35 108.85 209.4 107.35 209.4 105.9 209.4 104.8 208.35 103.75 207.3 103.75 205.8
L 103.75 205.7
Q 103.8 204.2 104.85 203.15 105.95 202.1 107.45 202.1
M 209.15 203.8
Q 210.7 203.85 211.75 204.9 212.8 206 212.8 207.5 212.85 208.95 211.85 210 210.85 211.1 209.4 211.15
L 209.1 211.15 209.05 211.1
Q 207.55 211.1 206.5 210 205.45 208.95 205.45 207.4 205.5 205.9 206.55 204.85 207.65 203.8 209.15 203.8 Z"/>
</g>

<g id="flash0_ai_Layer_1__Group__0_Layer0_0_MEMBER_0_FILL">
<path fill="#FFFFFF" stroke="none" d="
M 244.05 47.8
Q 259.15 61.35 270.25 78.3 261.05 60 246.35 45.1 239.1 37.8 230.85 31.4 222.45 25.1 213.6 20.05 212.9 19.65 209 17.55
L 204.4 15.25
Q 200 13.15 194.9 11.05 184.95 7.15 175.1 4.65 154.65 -0.4 133.8 0.05 112.9 0.6 92.85 6.5 72.85 12.45 55 23.35 37.15 34.05 23 49.25 8.95 64.15 0 83 10.4 65.85 25.45 51.65 40 37.95 57.75 28 75.25 18.35 94.65 12.9 113.75 7.45 133.95 7 154.2 6.6 173.45 11.1 183.35 13.4 192.55 16.8 198.45 19 201.85 20.6
L 206.45 22.7
Q 209.45 24.1 210.95 24.9 229 34.2 244.05 47.8 Z"/>
</g>
</defs>

<g transform="matrix( 1, 0, 0, 1, 105,105) ">
<g transform="matrix( 0.631256103515625, 0, 0, 0.631256103515625, -101,-101) ">
<use xlink:href="#steering_0_Layer0_0_MEMBER_0_MEMBER_0_FILL"/>
</g>

<g transform="matrix( 0.631256103515625, 0, 0, 0.631256103515625, -101,-101) ">
<use xlink:href="#steering_0_Layer0_0_MEMBER_0_MEMBER_1_FILL"/>
</g>

<g transform="matrix( 0.631256103515625, 0, 0, 0.631256103515625, -101,-101) ">
<use xlink:href="#steering_0_Layer0_0_MEMBER_0_MEMBER_2_FILL"/>
</g>

<g transform="matrix( 0.631256103515625, 0, 0, 0.631256103515625, -86.2,-99.35) ">
<g transform="matrix( 1, 0, 0, 1, 0,0) ">
<use filter="url(#Filter_1)" xlink:href="#flash0_ai_Layer_1__Group__0_Layer0_0_MEMBER_0_FILL"/>
</g>
</g>
</g>
</svg>
