
<svg xmlns="http://www.w3.org/2000/svg" version="1.1" xmlns:xlink="http://www.w3.org/1999/xlink" preserveAspectRatio="none" x="0px" y="0px" width="60px" height="60px" viewBox="0 0 60 60">
<defs>
<g id="btn_0_Layer1_0_FILL">
<path fill="#333333" stroke="none" d="
M 18.6 -18.65
Q 10.95 -26.35 0 -26.35 -10.9 -26.35 -18.65 -18.65 -26.35 -10.9 -26.35 0 -26.35 10.9 -18.65 18.6 -10.9 26.35 0 26.35 10.95 26.35 18.6 18.6 26.35 10.9 26.35 0 26.35 -10.9 18.6 -18.65
M 14.4 -10.9
Q 8.45 -16.85 0 -16.85 -8.45 -16.85 -14.45 -10.9 -19.7 -5.6 -20.3 1.6 -20.4 0.6 -20.4 -0.4 -20.4 -8.85 -14.45 -14.85 -8.45 -20.8 0 -20.8 8.45 -20.8 14.4 -14.85 20.4 -8.85 20.4 -0.4 20.4 0.6 20.35 1.6 19.7 -5.6 14.4 -10.9 Z"/>

<path fill="#FFFFFF" fill-opacity="0.4980392156862745" stroke="none" d="
M 0 -16.85
Q 8.45 -16.85 14.4 -10.9 19.7 -5.6 20.35 1.6 20.4 0.6 20.4 -0.4 20.4 -8.85 14.4 -14.85 8.45 -20.8 0 -20.8 -8.45 -20.8 -14.45 -14.85 -20.4 -8.85 -20.4 -0.4 -20.4 0.6 -20.3 1.6 -19.7 -5.6 -14.45 -10.9 -8.45 -16.85 0 -16.85 Z"/>
</g>

<g id="btn_0_Layer1_1_FILL">
<path fill="#333333" stroke="none" d="
M 18.6 -18.65
Q 10.95 -26.35 0 -26.35 -10.9 -26.35 -18.65 -18.65 -26.35 -10.9 -26.35 0 -26.35 10.9 -18.65 18.6 -10.9 26.35 0 26.35 10.95 26.35 18.6 18.6 26.35 10.9 26.35 0 26.35 -10.9 18.6 -18.65
M 14.4 -10.9
Q 8.45 -16.85 0 -16.85 -8.45 -16.85 -14.45 -10.9 -19.7 -5.6 -20.3 1.6 -20.4 0.6 -20.4 -0.4 -20.4 -8.85 -14.45 -14.85 -8.45 -20.8 0 -20.8 8.45 -20.8 14.4 -14.85 20.4 -8.85 20.4 -0.4 20.4 0.6 20.35 1.6 19.7 -5.6 14.4 -10.9 Z"/>

<path fill="#FFFFFF" fill-opacity="0.4980392156862745" stroke="none" d="
M 0 -16.85
Q 8.45 -16.85 14.4 -10.9 19.7 -5.6 20.35 1.6 20.4 0.6 20.4 -0.4 20.4 -8.85 14.4 -14.85 8.45 -20.8 0 -20.8 -8.45 -20.8 -14.45 -14.85 -20.4 -8.85 -20.4 -0.4 -20.4 0.6 -20.3 1.6 -19.7 -5.6 -14.45 -10.9 -8.45 -16.85 0 -16.85 Z"/>
</g>

<path id="btn_0_Layer1_0_1_STROKES" stroke="#FFFFFF" stroke-width="1" stroke-linejoin="round" stroke-linecap="round" fill="none" d="
M 26.35 0
Q 26.35 10.9 18.6 18.6 10.95 26.35 0 26.35 -10.9 26.35 -18.65 18.6 -26.35 10.9 -26.35 0 -26.35 -10.9 -18.65 -18.65 -10.9 -26.35 0 -26.35 10.95 -26.35 18.6 -18.65 26.35 -10.9 26.35 0 Z"/>

<path id="btn_0_Layer1_1_1_STROKES" stroke="#FFFFFF" stroke-width="1" stroke-linejoin="round" stroke-linecap="round" fill="none" d="
M 26.35 0
Q 26.35 10.9 18.6 18.6 10.95 26.35 0 26.35 -10.9 26.35 -18.65 18.6 -26.35 10.9 -26.35 0 -26.35 -10.9 -18.65 -18.65 -10.9 -26.35 0 -26.35 10.95 -26.35 18.6 -18.65 26.35 -10.9 26.35 0 Z"/>
</defs>

<g transform="matrix( 1, 0, 0, 1, 30,30) ">
<g id="btn" transform="matrix( 1, 0, 0, 1, 0,0) ">
<g transform="matrix( 1, 0, 0, 1, 0,0) ">
<use xlink:href="#btn_0_Layer1_0_FILL"/>

<use xlink:href="#btn_0_Layer1_0_1_STROKES"/>
</g>

<g transform="matrix( 1, 0, 0, 1, 0,0) ">
<use xlink:href="#btn_0_Layer1_1_FILL"/>

<use xlink:href="#btn_0_Layer1_1_1_STROKES"/>
</g>
</g>
</g>
</svg>
